<svg xmlns="http://www.w3.org/2000/svg" width="196" height="32" viewBox="0 0 196 32" fill="none">
<rect width="32" height="32" rx="10" fill="#0D1B2A"/>
<path d="M8 23V9h3.2l4.8 7.2L20.8 9H24v14h-3.1v-8.8l-3.8 5.7h-2.2l-3.8-5.7V23H8Z" fill="#F7F5F0"/>
<path d="M36 22V10h4.8c1.7 0 3 .4 3.9 1.1.9.7 1.4 1.8 1.4 3.1 0 .9-.2 1.7-.7 2.4-.5.7-1.1 1.2-2 1.5L46.6 22h-3.6l-2.8-3.7h-1.3V22H36Zm3-6.2h1.6c.8 0 1.4-.1 1.8-.4.4-.3.6-.7.6-1.3 0-.5-.2-.9-.6-1.2-.4-.3-1-.4-1.8-.4H39v3.3Z" fill="#0D1B2A"/>
<path d="M50 22V10h8.8v2.5H53v2.2h5v2.4h-5v2.4h6V22H50Z" fill="#0D1B2A"/>
<path d="M63 22V10h3v9.5h5.6V22H63Z" fill="#0D1B2A"/>
<path d="M75 22V10h3V22H75Z" fill="#0D1B2A"/>
<path d="M83 22V10h3.1l5.6 7.2V10h3V22h-2.9L86 14.4V22h-3Z" fill="#0D1B2A"/>
<path d="M100 22V10h3V22h-3Z" fill="#0D1B2A"/>
<path d="M108 22V10h8.8v2.5H111v2.2h5v2.4h-5v2.4h6V22H108Z" fill="#0D1B2A"/>
<path d="M120 22l5.1-12h3.1l5.1 12h-3.2l-1-2.4h-4.9l-1 2.4H120Zm5.1-4.8h2.9l-1.5-3.8-1.4 3.8Z" fill="#0D1B2A"/>
<path d="M136 22V10h4.8c1.7 0 3 .4 3.9 1.1.9.7 1.4 1.8 1.4 3.1 0 .9-.2 1.7-.7 2.4-.5.7-1.1 1.2-2 1.5l3.2 3.9h-3.6l-2.8-3.7h-1.3V22h-3Zm3-6.2h1.6c.8 0 1.4-.1 1.8-.4.4-.3.6-.7.6-1.3 0-.5-.2-.9-.6-1.2-.4-.3-1-.4-1.8-.4H139v3.3Z" fill="#0D1B2A"/>
<path d="M150 22V10h3V22h-3Z" fill="#0D1B2A"/>
<path d="M157 22l5.1-12h3.1l5.1 12h-3.2l-1-2.4h-4.9l-1 2.4H157Zm5.1-4.8h2.9l-1.5-3.8-1.4 3.8Z" fill="#0D1B2A"/>
</svg>